<svg class="pixbrain" viewBox="1 4 30 25" shape-rendering="crispEdges" aria-hidden="true"><path fill="currentColor" d="M13 5h3v1h-3zM18 5h5v1h-5zM12 6h4v1h-4zM18 6h7v1h-7zM6 7h4v1h-4zM12 7h4v1h-4zM17 7h9v1h-9zM4 8h7v1h-7zM12 8h4v1h-4zM17 8h10v1h-10zM3 9h8v1h-8zM12 9h3v1h-3zM16 9h9v1h-9zM27 9h1v1h-1zM3 10h8v1h-8zM12 10h12v1h-12zM26 10h3v1h-3zM2 11h22v1h-22zM25 11h5v1h-5zM4 12h19v1h-19zM24 12h6v1h-6zM2 13h28v1h-28zM2 14h28v1h-28zM2 15h28v1h-28zM3 16h26v1h-26zM3 17h9v1h-9zM23 17h6v1h-6zM3 18h2v1h-2zM23 18h5v1h-5zM6 19h17v1h-17zM6 20h15v1h-15zM23 20h5v1h-5zM7 21h13v1h-13zM21 21h7v1h-7zM11 22h5v1h-5zM18 22h9v1h-9zM18 23h8v1h-8zM19 24h3v1h-3zM19 25h3v1h-3zM19 26h3v1h-3zM20 27h2v1h-2z"/><path fill="var(--signal)" d="M17 17h6v1h-6zM17 18h6v1h-6z"/></svg>
